# xmcd
# 
# Track frame offsets:
#     150
#     13821
#     28948
#     39755
#     51215
#     63516
#     76311
#     88708
#     98092
#     108983
#     120351
#     130491
#     142761
#     159943
#     170147
#     188169
# 
# Disc length: 2712
# 
# Revision: 0
# Processed by: cddbd v1.5.2PL0 Copyright (c) Steve Scherf et al.
# Submitted via: fre:ac v1.0.17
# 
DISCID=cb0a9610
DTITLE=Kristine Jackson - Vol.2 'Simply KJ'
DYEAR=2013
DGENRE=Blues
TTITLE0=Cried Without Tears
TTITLE1=Bang Bang
TTITLE2=Cut You Down
TTITLE3=Dirty
TTITLE4=Mary Belle
TTITLE5=4-9
TTITLE6=Outside In
TTITLE7=Every Morning
TTITLE8=Promise
TTITLE9=Picture
TTITLE10=Grinnin' In Your Face
TTITLE11=Cupid
TTITLE12=Heartaches Creepin'
TTITLE13=Them There Eyes
TTITLE14=St.James Infirmary
TTITLE15=Another Day
EXTD=
EXTT0=
EXTT1=
EXTT2=
EXTT3=
EXTT4=
EXTT5=
EXTT6=
EXTT7=
EXTT8=
EXTT9=
EXTT10=
EXTT11=
EXTT12=
EXTT13=
EXTT14=
EXTT15=
PLAYORDER=
